<svg xmlns="http://www.w3.org/2000/svg" xmlns:xlink="http://www.w3.org/1999/xlink" contentStyleType="text/css" data-diagram-type="DESCRIPTION" height="1419.375px" preserveAspectRatio="none" style="width:2176px;height:1419px;" version="1.1" viewBox="0 0 2176 1419" width="2176.875px" zoomAndPan="magnify"><?plantuml $version$?><defs/><g><!--entity MAIN--><g class="entity" data-qualified-name="MAIN" data-source-line="79" id="ent0001"><rect fill="#1C1C1C" height="116.666" rx="11.25" ry="11.25" style="stroke:#181818;stroke-width:0.9375;" width="562.5" x="1533.75" y="13.125"/><text fill="#F5F7FA" font-family="Inter" font-size="33.75" font-weight="700" lengthAdjust="spacing" text-decoration="underline" textLength="85.1507" x="1552.5" y="67.9535">main</text><text fill="#F5F7FA" font-family="Inter" font-size="24.375" font-style="italic" lengthAdjust="spacing" textLength="164.7995" x="1552.5" y="103.8991">Stable Releases</text></g><!--entity DEV--><g class="entity" data-qualified-name="DEV" data-source-line="81" id="ent0002"><rect fill="#1C1C1C" height="116.666" rx="11.25" ry="11.25" style="stroke:#181818;stroke-width:0.9375;" width="562.5" x="800.625" y="608.7"/><text fill="#F5F7FA" font-family="Inter" font-size="33.75" font-weight="700" lengthAdjust="spacing" text-decoration="underline" textLength="60.7496" x="819.375" y="663.5285">dev</text><text fill="#F5F7FA" font-family="Inter" font-size="24.375" font-style="italic" lengthAdjust="spacing" textLength="205.9202" x="819.375" y="699.4741">Integration Branch</text></g><!--entity HOT--><g class="entity" data-qualified-name="HOT" data-source-line="89" id="ent0004"><rect fill="#1C1C1C" height="103.8976" rx="11.25" ry="11.25" style="stroke:#181818;stroke-width:0.9375;" width="562.5" x="1533.75" y="317.3062"/><text fill="#F5F7FA" font-family="Inter" font-size="24.375" font-weight="700" lengthAdjust="spacing" textLength="95.7938" x="1552.5" y="362.1131">hotfix/*</text><text fill="#F5F7FA" font-family="Inter" font-size="24.375" font-style="italic" lengthAdjust="spacing" textLength="177.2552" x="1552.5" y="395.3119">Emergency Fixes</text></g><!--entity FEAT--><g class="entity" data-qualified-name="FEAT" data-source-line="97" id="ent0006"><rect fill="#1C1C1C" height="203.4939" rx="11.25" ry="11.25" style="stroke:#181818;stroke-width:0.9375;" width="562.5" x="13.125" y="912.8625"/><text fill="#F5F7FA" font-family="Inter" font-size="24.375" font-weight="700" lengthAdjust="spacing" textLength="113.7826" x="31.875" y="957.6694">feature/*</text><text fill="#F5F7FA" font-family="Inter" font-size="24.375" lengthAdjust="spacing" textLength="148.1026" x="31.875" y="990.8682">feat/kernel/*</text><text fill="#F5F7FA" font-family="Inter" font-size="24.375" lengthAdjust="spacing" textLength="155.3907" x="31.875" y="1024.067">feat/drivers/*</text><text fill="#F5F7FA" font-family="Inter" font-size="24.375" lengthAdjust="spacing" textLength="175.4757" x="31.875" y="1057.2657">feat/modules/*</text><text fill="#F5F7FA" font-family="Inter" font-size="24.375" lengthAdjust="spacing" textLength="189.3207" x="31.875" y="1090.4645">feat/interfaces/*</text></g><!--entity BUG--><g class="entity" data-qualified-name="BUG" data-source-line="99" id="ent0007"><rect fill="#1C1C1C" height="203.4939" rx="11.25" ry="11.25" style="stroke:#181818;stroke-width:0.9375;" width="562.5" x="800.625" y="912.8625"/><text fill="#F5F7FA" font-family="Inter" font-size="24.375" font-weight="700" lengthAdjust="spacing" textLength="100.7907" x="819.375" y="957.6694">bugfix/*</text><text fill="#F5F7FA" font-family="Inter" font-size="24.375" lengthAdjust="spacing" textLength="176.1095" x="819.375" y="990.8682">bugfix/kernel/*</text><text fill="#F5F7FA" font-family="Inter" font-size="24.375" lengthAdjust="spacing" textLength="183.3976" x="819.375" y="1024.067">bugfix/drivers/*</text><text fill="#F5F7FA" font-family="Inter" font-size="24.375" lengthAdjust="spacing" textLength="203.4827" x="819.375" y="1057.2657">bugfix/modules/*</text><text fill="#F5F7FA" font-family="Inter" font-size="24.375" lengthAdjust="spacing" textLength="217.3277" x="819.375" y="1090.4645">bugfix/interfaces/*</text></g><!--entity DOCS--><g class="entity" data-qualified-name="DOCS" data-source-line="101" id="ent0008"><rect fill="#1C1C1C" height="70.6988" rx="11.25" ry="11.25" style="stroke:#181818;stroke-width:0.9375;" width="562.5" x="1588.125" y="979.2562"/><text fill="#F5F7FA" font-family="Inter" font-size="24.375" font-weight="700" lengthAdjust="spacing" textLength="78.78" x="1606.875" y="1024.0631">docs/*</text></g><!--link MAIN to DEV--><!--link DEV to MAIN--><g class="link" data-entity-1="ent0002" data-entity-2="ent0001" data-link-type="dependency" data-source-line="124" id="lnk19"><path d="M1175.625,608.0625 C1175.625,461.1937 1175.625,90.7312 1175.625,90.7312 C1175.625,90.7312 1352.7188,90.7312 1524.2625,90.7312" fill="none" id="DEV-to-MAIN" style="stroke:#41E05F;stroke-width:4.125;"/><polygon fill="#41E05F" points="1533.6375,90.7312,1516.7625,83.2312,1524.2625,90.7312,1516.7625,98.2312,1533.6375,90.7312" style="stroke:#41E05F;stroke-width:4.125;stroke-linejoin:miter;stroke-miterlimit:10;"/></g><!--link HOT to MAIN--><!--link MAIN to HOT--><g class="link" data-entity-1="ent0001" data-entity-2="ent0004" data-link-type="dependency" data-source-line="117" id="lnk15"><path d="M1674.375,130.2938 C1674.375,184.5375 1674.375,254.9437 1674.375,307.1438" fill="none" id="MAIN-to-HOT" style="stroke:#4F8CFF;stroke-width:4.125;"/><polygon fill="#4F8CFF" points="1674.375,316.5188,1681.875,299.6438,1674.375,307.1438,1666.875,299.6438,1674.375,316.5188" style="stroke:#4F8CFF;stroke-width:4.125;stroke-linejoin:miter;stroke-miterlimit:10;"/></g><!--link HOT to MAIN--><g class="link" data-entity-1="ent0004" data-entity-2="ent0001" data-link-type="dependency" data-source-line="127" id="lnk20"><path d="M1955.625,316.6875 C1955.625,264.6 1955.625,194.3062 1955.625,140.025" fill="none" id="HOT-to-MAIN" style="stroke:#FF2D7A;stroke-width:4.125;"/><polygon fill="#FF2D7A" points="1955.625,130.65,1948.125,147.525,1955.625,140.025,1963.125,147.525,1955.625,130.65" style="stroke:#FF2D7A;stroke-width:4.125;stroke-linejoin:miter;stroke-miterlimit:10;"/></g><!--link FEAT to BUG--><!--link BUG to DOCS--><!--link DEV to BUG--><!--link DEV to BUG--><g class="link" data-entity-1="ent0002" data-entity-2="ent0007" data-link-type="dependency" data-source-line="114" id="lnk13"><path d="M1081.875,726 C1081.875,776.925 1081.875,842.325 1081.875,902.9812" fill="none" id="DEV-to-BUG" style="stroke:#4F8CFF;stroke-width:4.125;"/><polygon fill="#4F8CFF" points="1081.875,912.3562,1089.375,895.4812,1081.875,902.9812,1074.375,895.4812,1081.875,912.3562" style="stroke:#4F8CFF;stroke-width:4.125;stroke-linejoin:miter;stroke-miterlimit:10;"/></g><!--link BUG to DEV--><g class="link" data-entity-1="ent0007" data-entity-2="ent0002" data-link-type="dependency" data-source-line="121" id="lnk17"><path d="M1222.5,912.2063 C1222.5,851.5313 1222.5,786.1687 1222.5,735.2813" fill="none" id="BUG-to-DEV" style="stroke:#41E05F;stroke-width:4.125;"/><polygon fill="#41E05F" points="1222.5,725.9063,1215,742.7813,1222.5,735.2813,1230,742.7813,1222.5,725.9063" style="stroke:#41E05F;stroke-width:4.125;stroke-linejoin:miter;stroke-miterlimit:10;"/></g><!--link DEV to FEAT--><g class="link" data-entity-1="ent0002" data-entity-2="ent0006" data-link-type="dependency" data-source-line="113" id="lnk12"><path d="M800.0063,647.6062 C542.175,647.6062 200.625,647.6062 200.625,647.6062 C200.625,647.6062 200.625,794.4188 200.625,903" fill="none" id="DEV-to-FEAT" style="stroke:#4F8CFF;stroke-width:4.125;"/><polygon fill="#4F8CFF" points="200.625,912.375,208.125,895.5,200.625,903,193.125,895.5,200.625,912.375" style="stroke:#4F8CFF;stroke-width:4.125;stroke-linejoin:miter;stroke-miterlimit:10;"/></g><!--link FEAT to DEV--><g class="link" data-entity-1="ent0006" data-entity-2="ent0002" data-link-type="dependency" data-source-line="120" id="lnk16"><path d="M388.125,912.75 C388.125,816.5625 388.125,686.9812 388.125,686.9812 C388.125,686.9812 598.2563,686.9812 790.3313,686.9812" fill="none" id="FEAT-to-DEV" style="stroke:#41E05F;stroke-width:4.125;"/><polygon fill="#41E05F" points="799.7063,686.9812,782.8313,679.4812,790.3313,686.9812,782.8313,694.4812,799.7063,686.9812" style="stroke:#41E05F;stroke-width:4.125;stroke-linejoin:miter;stroke-miterlimit:10;"/></g><!--link DEV to DOCS--><g class="link" data-entity-1="ent0002" data-entity-2="ent0008" data-link-type="dependency" data-source-line="115" id="lnk14"><path d="M1363.8375,666.3562 C1609.5562,666.3562 1926.8813,666.3562 1926.8813,666.3562 C1926.8813,666.3562 1926.8813,880.2938 1926.8813,969.2812" fill="none" id="DEV-to-DOCS" style="stroke:#4F8CFF;stroke-width:4.125;"/><polygon fill="#4F8CFF" points="1926.8813,978.6562,1934.3812,961.7812,1926.8813,969.2812,1919.3813,961.7812,1926.8813,978.6562" style="stroke:#4F8CFF;stroke-width:4.125;stroke-linejoin:miter;stroke-miterlimit:10;"/></g><!--link DOCS to DEV--><g class="link" data-entity-1="ent0008" data-entity-2="ent0002" data-link-type="dependency" data-source-line="122" id="lnk18"><path d="M1757.4938,978.7125 C1757.4938,895.4812 1757.4938,696.3562 1757.4938,696.3562 C1757.4938,696.3562 1558.6313,696.3562 1373.3813,696.3562" fill="none" id="DOCS-to-DEV" style="stroke:#41E05F;stroke-width:4.125;"/><polygon fill="#41E05F" points="1364.0063,696.3562,1380.8813,703.8562,1373.3813,696.3562,1380.8813,688.8562,1364.0063,696.3562" style="stroke:#41E05F;stroke-width:4.125;stroke-linejoin:miter;stroke-miterlimit:10;"/></g><!--link HOT to DEV--><g class="link" data-entity-1="ent0004" data-entity-2="ent0002" data-link-type="dependency" data-source-line="128" id="lnk21"><path d="M1560.9375,421.7438 C1560.9375,500.025 1560.9375,638.2312 1560.9375,638.2312 C1560.9375,638.2312 1477.3875,638.2312 1373.3813,638.2312" fill="none" id="HOT-to-DEV" style="stroke:#FF2D7A;stroke-width:4.125;"/><polygon fill="#FF2D7A" points="1364.0063,638.2312,1380.8813,645.7312,1373.3813,638.2312,1380.8813,630.7312,1364.0063,638.2312" style="stroke:#FF2D7A;stroke-width:4.125;stroke-linejoin:miter;stroke-miterlimit:10;"/></g><g class="legend" data-source-line="130"><rect fill="#232323" height="194.7962" rx="14.0625" ry="14.0625" style="stroke:#000000;stroke-width:1.875;" width="314.036" x="924.857" y="1153.8564"/><text fill="#F5F7FA" font-family="Inter" font-size="20.625" lengthAdjust="spacing" textLength="5.3625" x="934.232" y="1185.2794">&#160;</text><text fill="#F5F7FA" font-family="Inter" font-size="20.625" font-weight="700" lengthAdjust="spacing" textLength="54.3877" x="939.5945" y="1217.1204">Color</text><text fill="#F5F7FA" font-family="Inter" font-size="20.625" font-weight="700" lengthAdjust="spacing" textLength="90.1306" x="1004.7071" y="1217.1204">Meaning</text><rect fill="#4F8CFF" height="28.091" style="stroke:none;stroke-width:1.875;" width="65.1127" x="934.232" y="1223.1635"/><text fill="#F5F7FA" font-family="Inter" font-size="20.625" lengthAdjust="spacing" textLength="5.3625" x="934.232" y="1245.2114">&#160;</text><text fill="#F5F7FA" font-family="Inter" font-size="20.625" lengthAdjust="spacing" textLength="156.9964" x="1004.7071" y="1245.2114">Branch Creation</text><rect fill="#41E05F" height="28.091" style="stroke:none;stroke-width:1.875;" width="65.1127" x="934.232" y="1251.2545"/><text fill="#F5F7FA" font-family="Inter" font-size="20.625" lengthAdjust="spacing" textLength="5.3625" x="934.232" y="1273.3025">&#160;</text><text fill="#F5F7FA" font-family="Inter" font-size="20.625" lengthAdjust="spacing" textLength="188.6143" x="1004.7071" y="1273.3025">Pull Request Merge</text><rect fill="#FF2D7A" height="28.091" style="stroke:none;stroke-width:1.875;" width="65.1127" x="934.232" y="1279.3456"/><text fill="#F5F7FA" font-family="Inter" font-size="20.625" lengthAdjust="spacing" textLength="5.3625" x="934.232" y="1301.3935">&#160;</text><text fill="#F5F7FA" font-family="Inter" font-size="20.625" lengthAdjust="spacing" textLength="219.4484" x="1004.7071" y="1301.3935">Hotfix Synchronization</text><line style="stroke:#F5F7FA;stroke-width:1.875;" x1="934.232" x2="1229.518" y1="1195.0724" y2="1195.0724"/><line style="stroke:#F5F7FA;stroke-width:1.875;" x1="934.232" x2="1229.518" y1="1223.1635" y2="1223.1635"/><line style="stroke:#F5F7FA;stroke-width:1.875;" x1="934.232" x2="1229.518" y1="1251.2545" y2="1251.2545"/><line style="stroke:#F5F7FA;stroke-width:1.875;" x1="934.232" x2="1229.518" y1="1279.3456" y2="1279.3456"/><line style="stroke:#F5F7FA;stroke-width:1.875;" x1="934.232" x2="1229.518" y1="1307.4366" y2="1307.4366"/><line style="stroke:#F5F7FA;stroke-width:1.875;" x1="934.232" x2="934.232" y1="1195.0724" y2="1307.4366"/><line style="stroke:#F5F7FA;stroke-width:1.875;" x1="999.3447" x2="999.3447" y1="1195.0724" y2="1307.4366"/><line style="stroke:#F5F7FA;stroke-width:1.875;" x1="1229.518" x2="1229.518" y1="1195.0724" y2="1307.4366"/><text fill="#F5F7FA" font-family="Inter" font-size="20.625" lengthAdjust="spacing" textLength="5.3625" x="934.232" y="1333.2346">&#160;</text></g><g class="caption" data-source-line="1"><text fill="#CBD5E1" font-family="Inter" font-size="22.5" font-style="italic" font-weight="700" lengthAdjust="spacing" textLength="138.916" x="1012.417" y="1398.9553">Git Workflow</text></g></g></svg>